<mxfile host="app.diagrams.net" modified="2023-05-16T11:26:58.225Z" agent="Mozilla/5.0 (Windows NT 10.0; Win64; x64) AppleWebKit/537.36 (KHTML, like Gecko) Chrome/113.0.0.0 Safari/537.36 Edg/113.0.1774.42" etag="HqKon2QYGIsGGjmE7A0n" version="21.1.8" type="device">
  <diagram name="Страница 1" id="ObB2hzVL6vscV9VKVtI0">
    <mxGraphModel dx="2910" dy="1346" grid="1" gridSize="10" guides="1" tooltips="1" connect="1" arrows="1" fold="1" page="1" pageScale="1" pageWidth="827" pageHeight="1169" math="0" shadow="0">
      <root>
        <mxCell id="0" />
        <mxCell id="1" parent="0" />
        <mxCell id="Q0IjBv164ugypCz1OV6f-1" value="Пользователь" style="shape=umlActor;verticalLabelPosition=bottom;verticalAlign=top;html=1;outlineConnect=0;" vertex="1" parent="1">
          <mxGeometry x="130" y="220" width="30" height="60" as="geometry" />
        </mxCell>
        <mxCell id="Q0IjBv164ugypCz1OV6f-2" value="Администратор" style="shape=umlActor;verticalLabelPosition=bottom;verticalAlign=top;html=1;outlineConnect=0;" vertex="1" parent="1">
          <mxGeometry x="620" y="220" width="30" height="60" as="geometry" />
        </mxCell>
        <mxCell id="Q0IjBv164ugypCz1OV6f-3" value="Регистрация" style="ellipse;whiteSpace=wrap;html=1;" vertex="1" parent="1">
          <mxGeometry y="90" width="90" height="50" as="geometry" />
        </mxCell>
        <mxCell id="Q0IjBv164ugypCz1OV6f-4" value="Авторизация" style="ellipse;whiteSpace=wrap;html=1;" vertex="1" parent="1">
          <mxGeometry x="160" y="40" width="90" height="50" as="geometry" />
        </mxCell>
        <mxCell id="Q0IjBv164ugypCz1OV6f-5" value="Редактирование профиля" style="ellipse;whiteSpace=wrap;html=1;" vertex="1" parent="1">
          <mxGeometry x="284" y="90" width="130" height="50" as="geometry" />
        </mxCell>
        <mxCell id="Q0IjBv164ugypCz1OV6f-6" value="Отправка сообщений" style="ellipse;whiteSpace=wrap;html=1;" vertex="1" parent="1">
          <mxGeometry x="-120" y="180" width="90" height="50" as="geometry" />
        </mxCell>
        <mxCell id="Q0IjBv164ugypCz1OV6f-7" value="Поиск людей" style="ellipse;whiteSpace=wrap;html=1;" vertex="1" parent="1">
          <mxGeometry x="-120" y="320" width="90" height="50" as="geometry" />
        </mxCell>
        <mxCell id="Q0IjBv164ugypCz1OV6f-9" value="Персонализация" style="ellipse;whiteSpace=wrap;html=1;" vertex="1" parent="1">
          <mxGeometry x="-70" y="410" width="130" height="50" as="geometry" />
        </mxCell>
        <mxCell id="Q0IjBv164ugypCz1OV6f-10" value="Просмотр профилей пользователей" style="ellipse;whiteSpace=wrap;html=1;" vertex="1" parent="1">
          <mxGeometry x="110" y="440" width="140" height="60" as="geometry" />
        </mxCell>
        <mxCell id="Q0IjBv164ugypCz1OV6f-11" value="Удаление/редактирование сообщения" style="ellipse;whiteSpace=wrap;html=1;" vertex="1" parent="1">
          <mxGeometry x="300" y="380" width="130" height="60" as="geometry" />
        </mxCell>
        <mxCell id="Q0IjBv164ugypCz1OV6f-12" value="" style="endArrow=classic;html=1;rounded=0;" edge="1" parent="1">
          <mxGeometry width="50" height="50" relative="1" as="geometry">
            <mxPoint x="160" y="210" as="sourcePoint" />
            <mxPoint x="190" y="110" as="targetPoint" />
          </mxGeometry>
        </mxCell>
        <mxCell id="Q0IjBv164ugypCz1OV6f-13" value="" style="endArrow=classic;html=1;rounded=0;" edge="1" parent="1">
          <mxGeometry width="50" height="50" relative="1" as="geometry">
            <mxPoint x="170" y="220" as="sourcePoint" />
            <mxPoint x="280" y="140" as="targetPoint" />
          </mxGeometry>
        </mxCell>
        <mxCell id="Q0IjBv164ugypCz1OV6f-14" value="" style="endArrow=classic;html=1;rounded=0;" edge="1" parent="1">
          <mxGeometry width="50" height="50" relative="1" as="geometry">
            <mxPoint x="190" y="300" as="sourcePoint" />
            <mxPoint x="300" y="372.22225613064234" as="targetPoint" />
          </mxGeometry>
        </mxCell>
        <mxCell id="Q0IjBv164ugypCz1OV6f-15" value="" style="endArrow=classic;html=1;rounded=0;" edge="1" parent="1">
          <mxGeometry width="50" height="50" relative="1" as="geometry">
            <mxPoint x="160" y="320" as="sourcePoint" />
            <mxPoint x="170" y="420" as="targetPoint" />
          </mxGeometry>
        </mxCell>
        <mxCell id="Q0IjBv164ugypCz1OV6f-16" value="" style="endArrow=classic;html=1;rounded=0;" edge="1" parent="1">
          <mxGeometry width="50" height="50" relative="1" as="geometry">
            <mxPoint x="100" y="310" as="sourcePoint" />
            <mxPoint x="10" y="400" as="targetPoint" />
          </mxGeometry>
        </mxCell>
        <mxCell id="Q0IjBv164ugypCz1OV6f-17" value="" style="endArrow=classic;html=1;rounded=0;" edge="1" parent="1">
          <mxGeometry width="50" height="50" relative="1" as="geometry">
            <mxPoint x="110" y="260" as="sourcePoint" />
            <mxPoint x="-20" y="340" as="targetPoint" />
          </mxGeometry>
        </mxCell>
        <mxCell id="Q0IjBv164ugypCz1OV6f-18" value="" style="endArrow=classic;html=1;rounded=0;" edge="1" parent="1">
          <mxGeometry width="50" height="50" relative="1" as="geometry">
            <mxPoint x="110" y="240" as="sourcePoint" />
            <mxPoint x="-10" y="210" as="targetPoint" />
          </mxGeometry>
        </mxCell>
        <mxCell id="Q0IjBv164ugypCz1OV6f-19" value="" style="endArrow=classic;html=1;rounded=0;" edge="1" parent="1">
          <mxGeometry width="50" height="50" relative="1" as="geometry">
            <mxPoint x="130" y="210" as="sourcePoint" />
            <mxPoint x="80" y="140" as="targetPoint" />
          </mxGeometry>
        </mxCell>
        <mxCell id="Q0IjBv164ugypCz1OV6f-20" value="" style="endArrow=classic;html=1;rounded=0;startArrow=classic;startFill=1;" edge="1" parent="1">
          <mxGeometry width="50" height="50" relative="1" as="geometry">
            <mxPoint x="600" y="250" as="sourcePoint" />
            <mxPoint x="180" y="250" as="targetPoint" />
          </mxGeometry>
        </mxCell>
        <mxCell id="Q0IjBv164ugypCz1OV6f-21" value="Просмотр статистики" style="ellipse;whiteSpace=wrap;html=1;" vertex="1" parent="1">
          <mxGeometry x="500" y="120" width="130" height="50" as="geometry" />
        </mxCell>
        <mxCell id="Q0IjBv164ugypCz1OV6f-22" value="Просмотр всех пользователей" style="ellipse;whiteSpace=wrap;html=1;" vertex="1" parent="1">
          <mxGeometry x="710" y="90" width="130" height="50" as="geometry" />
        </mxCell>
        <mxCell id="Q0IjBv164ugypCz1OV6f-23" value="Удаление аккаунтов" style="ellipse;whiteSpace=wrap;html=1;" vertex="1" parent="1">
          <mxGeometry x="870" y="190" width="130" height="50" as="geometry" />
        </mxCell>
        <mxCell id="Q0IjBv164ugypCz1OV6f-24" value="Добавление/удаление стикеров" style="ellipse;whiteSpace=wrap;html=1;" vertex="1" parent="1">
          <mxGeometry x="840" y="320" width="170" height="60" as="geometry" />
        </mxCell>
        <mxCell id="Q0IjBv164ugypCz1OV6f-25" value="Рассылка" style="ellipse;whiteSpace=wrap;html=1;" vertex="1" parent="1">
          <mxGeometry x="697" y="410" width="130" height="50" as="geometry" />
        </mxCell>
        <mxCell id="Q0IjBv164ugypCz1OV6f-26" value="" style="endArrow=classic;html=1;rounded=0;" edge="1" parent="1">
          <mxGeometry width="50" height="50" relative="1" as="geometry">
            <mxPoint x="620" y="210" as="sourcePoint" />
            <mxPoint x="600" y="180" as="targetPoint" />
          </mxGeometry>
        </mxCell>
        <mxCell id="Q0IjBv164ugypCz1OV6f-27" value="" style="endArrow=classic;html=1;rounded=0;" edge="1" parent="1">
          <mxGeometry width="50" height="50" relative="1" as="geometry">
            <mxPoint x="660" y="230" as="sourcePoint" />
            <mxPoint x="750" y="150" as="targetPoint" />
          </mxGeometry>
        </mxCell>
        <mxCell id="Q0IjBv164ugypCz1OV6f-28" value="" style="endArrow=classic;html=1;rounded=0;" edge="1" parent="1">
          <mxGeometry width="50" height="50" relative="1" as="geometry">
            <mxPoint x="660" y="240" as="sourcePoint" />
            <mxPoint x="850" y="220" as="targetPoint" />
          </mxGeometry>
        </mxCell>
        <mxCell id="Q0IjBv164ugypCz1OV6f-29" value="" style="endArrow=classic;html=1;rounded=0;" edge="1" parent="1">
          <mxGeometry width="50" height="50" relative="1" as="geometry">
            <mxPoint x="660" y="250" as="sourcePoint" />
            <mxPoint x="830" y="330" as="targetPoint" />
          </mxGeometry>
        </mxCell>
        <mxCell id="Q0IjBv164ugypCz1OV6f-30" value="" style="endArrow=classic;html=1;rounded=0;" edge="1" parent="1">
          <mxGeometry width="50" height="50" relative="1" as="geometry">
            <mxPoint x="670" y="310" as="sourcePoint" />
            <mxPoint x="730" y="400" as="targetPoint" />
          </mxGeometry>
        </mxCell>
      </root>
    </mxGraphModel>
  </diagram>
</mxfile>
